<svg xmlns="http://www.w3.org/2000/svg" viewBox="0 0 380 120" fill="none">
  <defs>
    <style>
      .poly-letter { fill: #004F9F; }
    </style>
  </defs>
  <!-- P -->
  <path class="poly-letter" d="M10 105V15h38c24 0 40 13 40 33s-16 33-40 33H35v24H10Zm25-46h11c11 0 17-6 17-15s-6-15-17-15H35v30Z"/>
  <!-- o -->
  <circle class="poly-letter" cx="140" cy="72" r="35"/>
  <circle fill="white" cx="140" cy="72" r="18"/>
  <!-- l -->
  <rect class="poly-letter" x="190" y="15" width="22" height="90" rx="2"/>
  <!-- y -->
  <path class="poly-letter" d="M224 37h24l20 42 20-42h24l-36 74c-6 12-14 16-26 16h-12v-20h8c6 0 9-2 12-8l2-4L224 37Z"/>
</svg>
